# xmcd
#
# Track frame offsets: 
#        150
#        17355
#        35020
#        53110
#        72641
#        90903
#        113020
#        132227
#        149970
#        167520
#
# Disc length: 2646 seconds
#
# Revision: 1
# Processed by: cddbd v1.5.2PL0 Copyright (c) Steve Scherf et al.
# Submitted via: ExactAudioCopyFreeDBPlugin 1.0
#
DISCID=870a540a
DTITLE=Timo Gross - Heavy Soul
DYEAR=2016
DGENRE=Blues
TTITLE0=Gallis Pole
TTITLE1=The Desert
TTITLE2=Get Up
TTITLE3=Caribou River
TTITLE4=Travellin' Pt.2
TTITLE5=That Something
TTITLE6=Time Ain't Tight
TTITLE7=Spanish Boots
TTITLE8=One Way Ticket
TTITLE9=Why
EXTD=
EXTT0=
EXTT1=
EXTT2=
EXTT3=
EXTT4=
EXTT5=
EXTT6=
EXTT7=
EXTT8=
EXTT9=
PLAYORDER=
